<svg xmlns="http://www.w3.org/2000/svg" viewBox="-1554.647 172 149.225 29.147">
  <defs>
    <style>
      .a{fill:#fff;}.b{fill:#f5b63e;}
    </style>
  </defs>
  <title id="svg1title">Beetrack</title>
  <path d="M-1552.133 194.712c.093.185.37.755 1.893.755a1.87 1.87 0 0 0 1.5-.715 3.6 3.6 0 0 0 1.06-2.172c.04-.278-.014-9.335-.014-9.335-2.85 4.4-5.393 9.573-4.44 11.467zm15.107-9.19l2.542-1.892-2.913-2.17a1.386 1.386 0 0 0-1.43 0l-2.913 2.17 2.542 1.892a2.068 2.068 0 0 0 2.172 0zm-1.072-6.594a3.582 3.582 0 0 1 2.105.662l3.47 2.6-3.47-2.6a3.582 3.582 0 0 0-2.105-.662zm-5.575 3.258l-1.708-1.27v-.3a2.835 2.835 0 0 1 .94-1.88l5.62-4.215a1.26 1.26 0 0 1 .71-.2 1.26 1.26 0 0 0-.72.2l-5.63 4.21a2.835 2.835 0 0 0-.94 1.88v.3l1.7 1.28zm5.613 12.778v3.866a1.27 1.27 0 0 0 .69-.185l5.627-4.158a2.776 2.776 0 0 0 .94-1.867v-2.132l-5.177 3.84a3.808 3.808 0 0 1-2.08.636zm9.575-11.72v9.39a3.122 3.122 0 0 0 1.033 2.12 2.148 2.148 0 0 0 1.5.713c1.523 0 1.814-.57 1.907-.755a2.113 2.113 0 0 0 .2-.86c.106-2.318-2.158-6.754-4.634-10.607zm-9.575 4.9v4.49a1.173 1.173 0 0 0 .69-.2l5.627-4.16a2.776 2.776 0 0 0 .94-1.866v-2.594l-4.833 3.575a4.3 4.3 0 0 1-2.423.75z" class="a"/>
  <path d="M-1544.44 178.73a2.835 2.835 0 0 0-.94 1.88v.3l1.707 1.272 3.47-2.6a3.68 3.68 0 0 1 4.21 0l3.47 2.6 1.707-1.27v-.3a2.835 2.835 0 0 0-.94-1.88l-5.625-4.21a1.386 1.386 0 0 0-1.43 0zm6.302 9.427a4 4 0 0 1-2.423-.768l-4.82-3.58v2.6a2.833 2.833 0 0 0 .94 1.86l5.62 4.16a1.176 1.176 0 0 0 .75.2v-4.5c-.03 0-.06.01-.08.01zm.04 6.807a3.57 3.57 0 0 1-2.105-.65l-5.178-3.84v1.842a2.927 2.927 0 0 0 .94 1.92l5.66 4.4a1.235 1.235 0 0 0 .71.212v-3.873a.05.05 0 0 0-.04-.01z" class="b"/>
  <path d="M-1528.91 178.558s-.966-1.192-1.458-1.682-5.625-4.21-5.625-4.21a3.664 3.664 0 0 0-4.21 0s-4.688 3.31-5.63 4.21a9.824 9.824 0 0 0-1.442 1.682 65.694 65.694 0 0 0-4.264 6.567c-2.86 5.045-3.72 8.514-2.67 10.62.47.927 1.54 2.04 3.99 2.04a4.216 4.216 0 0 0 3.26-1.524 3.18 3.18 0 0 0 .5-.8 4.412 4.412 0 0 0 .61.61l5.67 4.4a3.63 3.63 0 0 0 4.2.04l5.63-4.16a3.826 3.826 0 0 0 .7-.69 5.585 5.585 0 0 0 .45.61 4.216 4.216 0 0 0 3.26 1.52c2.45 0 3.51-1.11 3.99-2.04 1.06-2.1.19-5.57-2.66-10.62a67.2 67.2 0 0 0-4.27-6.57zm-18.775 14.022a3.532 3.532 0 0 1-1.06 2.172 1.87 1.87 0 0 1-1.5.715c-1.522 0-1.8-.57-1.892-.755-.94-1.893 1.59-7.058 4.436-11.467-.02 0 .05 9.044.01 9.335zm2.3-11.97a2.835 2.835 0 0 1 .94-1.88l5.627-4.21a1.386 1.386 0 0 1 1.43 0l5.632 4.205a2.778 2.778 0 0 1 .94 1.88v.3l-1.708 1.27-3.47-2.6a3.68 3.68 0 0 0-4.21 0l-3.47 2.6-1.707-1.26zm6.568.847a1.386 1.386 0 0 1 1.43 0l2.92 2.168-2.546 1.9a2.022 2.022 0 0 1-2.145 0l-2.57-1.9zm8 11.15a2.833 2.833 0 0 1-.94 1.866l-5.628 4.158a1.14 1.14 0 0 1-.69.19 1.172 1.172 0 0 1-.714-.21l-5.66-4.4a2.85 2.85 0 0 1-.92-1.89v-1.83l5.18 3.84a3.57 3.57 0 0 0 2.11.65h.04a3.64 3.64 0 0 0 2.07-.65l5.18-3.84zm0-6.82v.622a2.833 2.833 0 0 1-.94 1.86l-5.628 4.16a1.145 1.145 0 0 1-.69.2 1.262 1.262 0 0 1-.754-.2l-5.62-4.16a2.776 2.776 0 0 1-.94-1.87v-2.6l4.84 3.57a4 4 0 0 0 2.43.77h.08a4.3 4.3 0 0 0 2.43-.76l4.83-3.57zm6.75 8.925c-.094.185-.372.755-1.908.755a2.148 2.148 0 0 1-1.5-.715 3.122 3.122 0 0 1-1.033-2.12v-9.387c2.49 3.853 4.74 8.29 4.634 10.606a2.113 2.113 0 0 1-.194.87zm11.352-.332a8.536 8.536 0 0 0 4.687 1.3 10 10 0 0 0 2.847-.437 6.01 6.01 0 0 0 2.48-1.43 9.55 9.55 0 0 0 2.57-5.244 7.315 7.315 0 0 0-.64-5.08c-.03-.06-.07-.11-.1-.16a4.363 4.363 0 0 0-3.9-2.03 5.964 5.964 0 0 0-2.52.5 6.646 6.646 0 0 0-1.32.87 5.506 5.506 0 0 0-.73.74l.71-4.15a1.392 1.392 0 0 0-.04-.74 1.548 1.548 0 0 0-.29-.55 1.592 1.592 0 0 0-1.23-.56h-1.87l-2.08 11.92c-.358 2.05-.107 3.56.78 4.5a3.212 3.212 0 0 0 .6.52zm3.88-8.925a3.4 3.4 0 0 1 2.556-1.033 2.21 2.21 0 0 1 2.07 1.1c.04.066.07.132.11.185a4.334 4.334 0 0 1 .21 2.714 6.1 6.1 0 0 1-1.37 3.17 3.343 3.343 0 0 1-2.55 1.09 2.442 2.442 0 0 1-1.76-.62 1.915 1.915 0 0 1-.37-.47 4.624 4.624 0 0 1-.21-3.16 5.61 5.61 0 0 1 1.34-2.95zm14.06 6.395a3.148 3.148 0 0 1-.41-2.382h9.548c.053 0 .08-.2.12-.37 0-.027.012-.107.025-.213s.053-.225.066-.37a7.164 7.164 0 0 0-.516-4.86 4.2 4.2 0 0 0-.3-.478q-1.49-1.866-4.81-1.866a7.52 7.52 0 0 0-5.244 1.91 8.975 8.975 0 0 0-2.622 5.19c-.41 2.32-.12 4.1.834 5.34.053.08.12.15.172.23a5.452 5.452 0 0 0 4.4 1.7 8.334 8.334 0 0 0 4.5-1.18 6.875 6.875 0 0 0 2.542-2.61c.12-.21.238-.63.344-.63h-2.756a2.02 2.02 0 0 0-1.073.21 1.39 1.39 0 0 0-.49.4c-.132.11-.252.19-.344.28a.936.936 0 0 1-.34.17 3.707 3.707 0 0 1-1.65.36 2.478 2.478 0 0 1-1.79-.57c-.05-.07-.13-.15-.2-.24zm1.193-6.74a3.29 3.29 0 0 1 2.12-.754 2.317 2.317 0 0 1 1.92.715 1.99 1.99 0 0 1 .25.5 3.508 3.508 0 0 1 .147 1.69h-5.614a3.638 3.638 0 0 1 1.18-2.14zm13.442 6.754a3.21 3.21 0 0 1-.412-2.383h9.547c.053 0 .08-.2.12-.37 0-.02.012-.1.025-.21s.053-.22.066-.37a7.324 7.324 0 0 0-.516-4.86 3.868 3.868 0 0 0-.318-.49c-1.006-1.24-2.6-1.87-4.807-1.87a7.5 7.5 0 0 0-5.244 1.91 8.975 8.975 0 0 0-2.62 5.19c-.4 2.32-.12 4.1.84 5.34.06.08.12.15.17.23a5.452 5.452 0 0 0 4.4 1.7 8.38 8.38 0 0 0 4.52-1.18 6.973 6.973 0 0 0 2.55-2.61c.12-.21.24-.63.35-.63h-2.75a2.02 2.02 0 0 0-1.07.22 1.538 1.538 0 0 0-.49.4c-.13.11-.25.19-.36.28a.936.936 0 0 1-.34.17 3.668 3.668 0 0 1-1.65.36 2.48 2.48 0 0 1-1.79-.57c-.033-.05-.112-.13-.18-.23zm1.19-6.753a3.23 3.23 0 0 1 2.104-.75 2.27 2.27 0 0 1 1.907.72 1.986 1.986 0 0 1 .26.5 3.508 3.508 0 0 1 .15 1.69h-5.61a3.75 3.75 0 0 1 1.2-2.14zm14.91 10.33l.356-2.1.12-.73h-1.166a1.976 1.976 0 0 1-.477.02.616.616 0 0 1-.463-.8l1.337-7.66h.384a2.2 2.2 0 0 0 1.4-.47 2.05 2.05 0 0 0 .79-1.27l.02-.14.12-.78h-2.26l.41-2.223a1.247 1.247 0 0 0-.05-.7 1.73 1.73 0 0 0-.29-.53 1.543 1.543 0 0 0-1.18-.555h-1.97l-2.67 15.32a1.835 1.835 0 0 0 1.68 2.6 33.058 33.058 0 0 0 3.94.06zm6.275-7.17a3.3 3.3 0 0 1 1.165-2.16 3.812 3.812 0 0 1 2.49-.61h1.27l.53-3.17.12-.83h-.557a12.75 12.75 0 0 0-2.966.44 8.563 8.563 0 0 0-2.648 1.18 7.414 7.414 0 0 0-2.12 2.23 8.724 8.724 0 0 0-1.24 3.34l-1.18 6.63h3.85zm5.68 6.44a5.338 5.338 0 0 0 3.3 1.01 21.99 21.99 0 0 0 2.3-.13 7.987 7.987 0 0 0 2.583-.7 6.152 6.152 0 0 0 2.2-1.68 6.66 6.66 0 0 0 1.364-3.24l.834-4.71a3.045 3.045 0 0 0-.212-1.88 2.73 2.73 0 0 0-.887-1.03 7.866 7.866 0 0 0-4.462-.98 7.554 7.554 0 0 0-4.45 1.11 5.562 5.562 0 0 0-2.012 2.59h3.68a1.52 1.52 0 0 1 1.02-.71 4.836 4.836 0 0 1 1.418-.17 5.455 5.455 0 0 1 1.53.25.847.847 0 0 1 .7.77 1.882 1.882 0 0 1-.01.263c-.12.69-1.02 1.14-2.66 1.355q-.51.06-.91.12a2.728 2.728 0 0 1-.67.09 9.382 9.382 0 0 0-3.67 1.247 4.26 4.26 0 0 0-1.89 3.11 3.427 3.427 0 0 0 .68 3.167.954.954 0 0 1 .25.18zm2.716-3.45a2.465 2.465 0 0 1 .59-1.14 4.022 4.022 0 0 1 1.56-.67l1.31-.26a15.214 15.214 0 0 0 2.27-.66l-.16.92-.06.39a3.583 3.583 0 0 1-1.28 2.28 3.915 3.915 0 0 1-2.57.83 2.18 2.18 0 0 1-1.15-.263.588.588 0 0 1-.2-.16 1.364 1.364 0 0 1-.29-1.246zm43.95-9.99a1.676 1.676 0 0 1-1.71 1.7 1.682 1.682 0 1 1 0-3.36 1.654 1.654 0 0 1 1.71 1.67zm-3 0a1.3 1.3 0 0 0 1.31 1.34 1.284 1.284 0 0 0 1.27-1.32 1.292 1.292 0 1 0-2.58-.01zm1.02.88h-.38v-1.67a3.85 3.85 0 0 1 .65-.05 1.09 1.09 0 0 1 .58.12.447.447 0 0 1 .16.37.42.42 0 0 1-.34.39v.03a.514.514 0 0 1 .3.41 1.564 1.564 0 0 0 .12.43h-.42a1.462 1.462 0 0 1-.13-.41c-.02-.184-.13-.264-.34-.264h-.18zm.02-.95h.19c.22 0 .39-.07.39-.24s-.11-.25-.36-.25a.68.68 0 0 0-.21.02zm-26.2 14.55a8.38 8.38 0 0 0 4.52-1.18 7.106 7.106 0 0 0 2.56-2.61c.12-.21.24-.63.35-.63h-2.76a1.867 1.867 0 0 0-1.04.21 3.076 3.076 0 0 0-.514.4c-.13.105-.24.184-.344.277a.935.935 0 0 1-.347.17 3.668 3.668 0 0 1-1.653.36 2.482 2.482 0 0 1-1.79-.583 2.04 2.04 0 0 1-.23-.25c-.54-.66-.675-1.784-.4-3.36a5.82 5.82 0 0 1 1.59-3.43 3.207 3.207 0 0 1 2.104-.725 2.322 2.322 0 0 1 1.92.73 1.99 1.99 0 0 1 .29.53c.04.09.08.33.12.33h3.864a5.56 5.56 0 0 0-.7-2.25 4.27 4.27 0 0 0-.275-.463c-.995-1.244-2.6-1.87-4.81-1.88a7.52 7.52 0 0 0-5.24 1.908 8.975 8.975 0 0 0-2.625 5.19c-.41 2.32-.12 4.095.834 5.34.07.075.12.155.186.22a5.518 5.518 0 0 0 4.41 1.705zm17.55-8.83l5.37-4.66.78-.716h-4.63l-4.87 4.53-.7.675.89-5.06.41-2.33a1.34 1.34 0 0 0-.05-.69 1.835 1.835 0 0 0-.3-.57 1.608 1.608 0 0 0-1.22-.58h-1.98l-3.11 17.82h3.86l.587-3.24.343-1.88c.04-.278.28-.463.7-.6.37-.106.716.172 1.06.834.05.12.12.16.17.29l1.895 4.592h4.62z"/>
</svg>
